<svg width="2791" height="1227" viewBox="0 0 2791 1227" fill="none" xmlns="http://www.w3.org/2000/svg">
<path d="M344.913 381.54V267.647H715.101V577.598H592.793L577.301 495.433C529.192 551.566 454.176 585.733 334.313 585.733C123.94 585.733 0 490.551 0 292.053C0 94.3679 123.94 0 358.775 0C587.086 0 706.132 79.7248 715.101 235.107H498.207C490.053 205.82 448.468 178.974 358.775 178.974C233.203 178.974 212.003 231.853 212.003 300.188C212.003 369.337 234.019 431.165 358.775 431.165C440.314 431.165 490.053 419.775 498.207 381.54H344.913ZM948.807 390.489L658.528 8.13516H903.148L1054.81 219.65L1206.47 8.13516H1451.09L1160.81 390.489V577.598H948.807V390.489ZM2341.85 8.13516V577.598H2129.85V306.696L1974.11 577.598H1835.49L1679.75 306.696V577.598H1467.75V8.13516H1728.67L1904.8 333.542L2080.92 8.13516H2341.85ZM630.301 908.279C680.041 944.073 715.921 996.137 715.921 1057.97C715.921 1151.52 659.656 1226.36 530.007 1226.36H8.15402V656.9H505.545C635.194 656.9 675.148 715.475 675.148 801.705C675.148 838.318 658.025 875.734 630.301 908.279ZM220.157 795.196V857.026H415.852C437.052 857.026 463.145 857.026 463.145 826.111C463.145 795.196 437.052 795.196 415.852 795.196H220.157ZM456.622 1071.8C477.822 1071.8 503.915 1071.8 503.915 1041.69C503.915 1011.59 477.822 1011.59 456.622 1011.59H220.157V1071.8H456.622ZM1407.73 874.924C1407.73 957.902 1369.41 1026.24 1306.62 1062.85L1407.73 1226.36H1156.59L1077.5 1092.94H952.737V1226.36H740.737V656.9H1189.21C1318.85 656.9 1407.73 748.012 1407.73 874.924ZM952.737 835.878V913.969H1148.44C1169.64 913.969 1195.73 913.969 1195.73 874.924C1195.73 835.878 1169.64 835.878 1148.44 835.878H952.737ZM1978.23 1226.36L1939.09 1123.86H1696.1L1656.97 1226.36H1423.76L1660.22 656.9H1974.97L2211.43 1226.36H1978.23ZM1751.55 977.428H1883.65L1817.59 803.334L1751.55 977.428ZM2790.69 656.9V835.878H2546.07V1226.36H2334.07V835.878H2089.45V656.9H2790.69Z" fill="white"/>
<path d="M2790.69 245.656H2436.94V579.753H2790.69V245.656Z" fill="#D0FF00"/>
</svg>
